<?xml version="1.0" encoding="utf-8"?>
<!-- Generator: Adobe Illustrator 22.0.1, SVG Export Plug-In . SVG Version: 6.00 Build 0)  -->
<svg version="1.1" id="Layer_1" xmlns="http://www.w3.org/2000/svg" xmlns:xlink="http://www.w3.org/1999/xlink" x="0px" y="0px"
	 viewBox="0 0 935 935" style="enable-background:new 0 0 935 935;" xml:space="preserve">
<style type="text/css">
	.st0{fill:#FFFFFF;}
	.st1{fill:#51B848;}
</style>
<circle class="st0" cx="467" cy="467" r="461.5"/>
<path class="st1" d="M467.5,0C209.3,0,0,209.3,0,467.5S209.3,935,467.5,935S935,725.7,935,467.5S725.7,0,467.5,0z M435.3,239.4
	c0-14.2,11.6-25.8,25.8-25.8c14.2,0,25.8,11.5,25.8,25.8v220.9c0,14.2-11.5,25.8-25.8,25.8c-14.2,0-25.8-11.5-25.8-25.8c0,0,0,0,0,0
	V239.4z M740.3,471.2c-6.9,17.4-17.6,33-31.5,45.6L476.6,749.6c-6.9,6.9-18,7-24.9,0.2L214.6,518.6c-13.9-12.6-24.7-28.3-31.6-45.8
	c-6.5-16.1-9.8-33.3-9.9-50.7c0.1-17.3,3.5-34.4,10-50.5c7.1-17.3,18-32.8,31.8-45.3l0.1-0.1c12.3-11.2,26.7-19.9,42.3-25.7
	c30.7-11.3,64.5-11.3,95.3,0c15.3,5.7,29.4,14.2,41.6,25.1c10.5,9.4,12.2,25.6,3.1,36.4c-9.2,10.9-25.4,12.3-36.3,3.1
	c-0.2-0.2-0.5-0.4-0.7-0.6c-7.5-6.8-16.2-12.1-25.6-15.7c-19.2-7.1-40.3-7.1-59.5,0c-9.4,3.5-18,8.8-25.4,15.5
	c-8.2,7.3-14.6,16.4-18.8,26.5c-4.1,9.9-6.2,20.5-6.3,31.2c0.1,10.9,2.3,21.7,6.4,31.9c4.1,10.3,10.5,19.5,18.8,26.9l0.6,0.6
	l213.4,208.1l209.4-210l0.4-0.4c8.2-7.4,14.7-16.5,18.7-26.8c4.1-10.2,6.3-21,6.4-32c0-10.7-2.2-21.3-6.3-31.3
	c-4.2-10.1-10.6-19.2-18.7-26.5c-7.4-6.8-16.1-12.1-25.6-15.6c-9.4-3.5-19.3-5.3-29.3-5.3c-10.2,0-20.4,1.9-30,5.4
	c-9,3.2-17.2,8.2-24.1,14.8c-8.3,7.9-20.8,9.9-30.7,4.1c-12.4-7.1-16.7-22.9-9.6-35.3c1.2-2.1,2.7-4.1,4.5-5.8
	c12.2-11.7,26.7-20.6,42.5-26.3c31.4-11.2,64.1-11.1,94.6,0c15.6,5.8,30,14.5,42.3,25.7l0.2,0.2c13.9,12.5,24.7,28,31.8,45.3
	c6.5,16,9.9,33.2,10,50.5C750.1,437.8,746.7,455,740.3,471.2L740.3,471.2z"/>
</svg>
