<?xml version="1.0" encoding="utf-8"?>
<!-- Generator: Adobe Illustrator 22.1.0, SVG Export Plug-In . SVG Version: 6.00 Build 0)  -->
<svg version="1.1" id="Layer_1" xmlns="http://www.w3.org/2000/svg" xmlns:xlink="http://www.w3.org/1999/xlink" x="0px" y="0px"
	 viewBox="0 0 1575.9 452.3" style="enable-background:new 0 0 1575.9 452.3;" xml:space="preserve">
<style type="text/css">
	.st0{fill:#6BBF61;}
	.st1{fill:#4C4C4D;}
</style>
<path class="st0" d="M176.6,65.7C88,65.7,16.1,137.5,16.1,226.1s71.8,160.4,160.4,160.4S337,314.8,337,226.1S265.2,65.7,176.6,65.7z
	 M165.5,147.8c0-4.9,4-8.9,8.9-8.9c4.9,0,8.9,4,8.9,8.9v75.8c0,4.9-4,8.9-8.9,8.9c-4.9,0-8.9-4-8.9-8.9V147.8z M270.2,227.4
	c-2.3,5.9-5.9,11.2-10.8,15.7l-79.7,79.9c-2.3,2.3-6.1,2.4-8.6,0.1l-81.4-79.3c-4.9-4.5-8.6-9.8-10.8-15.7
	c-2.3-5.7-3.4-11.6-3.4-17.4c0-5.9,1.2-11.6,3.4-17.3c2.3-5.8,6-11.1,10.9-15.5l0.1-0.1c4.3-3.9,9.1-6.9,14.5-8.9
	c5.3-1.9,10.8-2.9,16.3-2.9c5.6,0,11.1,1,16.3,2.9c5.2,2,10,4.8,14.3,8.6c3.6,3.2,4.2,8.8,1.1,12.5c-3.2,3.8-9,4.2-12.7,0.9
	c-2.6-2.4-5.6-4.2-8.8-5.3c-3.3-1.2-6.7-1.8-10.2-1.8s-7,0.6-10.2,1.8c-3.1,1.2-6.1,3-8.7,5.3c-3,2.7-5.1,5.7-6.4,9.1
	c-1.5,3.6-2.1,7.1-2.1,10.7c0,3.6,0.7,7.2,2.2,11c1.4,3.5,3.4,6.5,6.4,9.2l0.2,0.2l73.2,71.4l71.8-72.2l0.1-0.1
	c2.9-2.7,5.1-5.7,6.4-9.2c1.5-3.7,2.2-7.4,2.2-11s-0.7-7.1-2.1-10.8c-1.4-3.4-3.4-6.4-6.4-9.1c-2.7-2.4-5.6-4.2-8.8-5.3
	c-3.3-1.2-6.7-1.8-10-1.8c-3.4,0-6.8,0.6-10.3,1.8c-3.1,1.2-5.9,2.8-8.3,5.1c-2.9,2.7-7.2,3.4-10.5,1.4c-5.3-3.1-5.9-10.2-1.8-14.1
	c4.2-4,9.1-7,14.6-9c10.8-3.9,22-3.8,32.4,0c5.3,2,10.2,4.9,14.5,8.9l0.1,0.1c4.9,4.5,8.6,9.7,10.9,15.5c2.3,5.6,3.4,11.5,3.4,17.3
	C273.6,215.8,272.4,221.6,270.2,227.4z"/>
<g>
	<path class="st1" d="M441.1,231.9c3.2,0,4.7,1.1,4.7,4.5v33.7c0,15.9-10.2,30.9-44.5,30.9c-34.3,0-44.5-15-44.5-30.9v-70.1
		c0-15.9,10.2-30.9,44.5-30.9c34.3,0,44.5,15,44.5,30.9v7.6c0,3.2-1.1,4.7-4.4,4.7h-15.7c-3.4,0-4.7-1.5-4.7-4.7v-3
		c0-9.5-6.7-14.2-19.3-14.2c-12.7,0-19.1,4.7-19.1,14.2v61c0,9.5,6.4,14.2,19.1,14.2c12.7,0,19.3-4.7,19.3-14v-12.7h-18.6
		c-3.4,0-4.9-1.1-4.9-4.5v-12.2c0-3.4,1.5-4.5,4.9-4.5H441.1z"/>
	<path class="st1" d="M516.3,170.7c3.4,0,5.1,1.5,6.1,4.7l35.2,119.3c0.9,3-0.2,4.7-3.4,4.7h-17c-3.2,0-4.5-1.7-5.5-4.7l-6.7-23.1
		h-35.2l-6.7,23.1c-0.9,3-2.3,4.7-5.7,4.7h-15.3c-3.4,0-4.5-1.7-3.6-4.7L494,175.5c0.9-3.2,2.4-4.7,5.9-4.7H516.3z M513.1,230.4
		c-2.4-7.7-5.3-32-5.5-34.5c-0.4,2.4-3.6,26.3-5.9,34.3l-6.4,21.2h24.1L513.1,230.4z"/>
	<path class="st1" d="M688.7,294.7c0,3.2-1.1,4.7-4.5,4.7h-15.7c-3.4,0-4.5-1.5-4.5-4.7v-71.9c-0.2,0.6-3.6,12.1-5.5,17.3L644,275.3
		c-1.4,3-3,4.7-6.2,4.7h-13.5c-3.2,0-4.9-1.9-6.1-4.7l-16-38c-1.9-4-4.2-12.7-4.4-14v71.6c0,3.2-1.1,4.7-4.5,4.7h-15
		c-3.4,0-4.5-1.5-4.5-4.7V175.5c0-3.2,1.1-4.7,4.5-4.7h15c2.4,0,3.4,0.9,4.2,2.7l29,66.1c2.3,5.1,4.7,13.3,4.7,13.3s2.4-7.4,4.9-13
		l28-66.7c0.8-1.7,2.1-2.3,4.4-2.3h15.7c3.4,0,4.5,1.5,4.5,4.7V294.7z"/>
	<path class="st1" d="M719.5,299.5c-3.4,0-4.5-1.5-4.5-4.9V175.7c0-3.4,1.1-4.9,4.5-4.9h64.8c3.2,0,4.7,1.1,4.7,4.5v12
		c0,3.4-1.5,4.7-4.7,4.7h-43.8v30.7h40.5c3.4,0,4.9,1.1,4.9,4.5v11.4c0,3.2-1.5,4.5-4.9,4.5h-40.5v35.2h45.6c3.4,0,4.7,1.1,4.7,4.5
		v12c0,3.4-1.4,4.7-4.7,4.7L719.5,299.5L719.5,299.5z"/>
</g>
<g>
	<path class="st1" d="M901.6,270.1c0,15.9-10.2,30.9-44.5,30.9c-34.3,0-44.5-15-44.5-30.9V200c0-15.9,10.2-30.9,44.5-30.9
		c34.3,0,44.5,15,44.5,30.9v9.1c0,3.4-1.1,4.7-4.4,4.7h-15.7c-3.4,0-4.7-1.4-4.7-4.7v-4.5c0-9.5-6.7-14.2-19.3-14.2
		c-12.7,0-19.1,4.7-19.1,14.2v61c0,9.5,6.4,14.2,19.1,14.2c12.7,0,19.3-4.7,19.3-14.2v-7.2c0-3.4,1.4-4.7,4.7-4.7h15.7
		c3.2,0,4.4,1.4,4.4,4.7V270.1z"/>
	<path class="st1" d="M948,222.7h40.9v-47.1c0-3.4,1.1-4.9,4.5-4.9h16.5c3.4,0,4.5,1.5,4.5,4.9v118.9c0,3.4-1.1,4.9-4.5,4.9h-16.5
		c-3.4,0-4.5-1.5-4.5-4.9v-50.6H948v50.6c0,3.4-1.1,4.9-4.5,4.9H927c-3.4,0-4.5-1.5-4.5-4.9V175.6c0-3.4,1.1-4.9,4.5-4.9h16.5
		c3.4,0,4.5,1.5,4.5,4.9V222.7z"/>
	<path class="st1" d="M1088.4,170.7c3.4,0,5.1,1.5,6.1,4.7l35.2,119.3c0.9,3-0.2,4.7-3.4,4.7h-17c-3.2,0-4.5-1.7-5.5-4.7l-6.7-23.1
		h-35.2l-6.7,23.1c-0.9,3-2.3,4.7-5.7,4.7h-15.3c-3.4,0-4.5-1.7-3.6-4.7l35.4-119.3c0.9-3.2,2.4-4.7,5.9-4.7L1088.4,170.7
		L1088.4,170.7z M1085.1,230.3c-2.4-7.7-5.3-32-5.5-34.5c-0.4,2.4-3.6,26.3-5.9,34.3l-6.4,21.2h24.1L1085.1,230.3z"/>
	<path class="st1" d="M1237.8,294.7c0,3.2-1.1,4.7-4.5,4.7h-15c-2.4,0-3.4-0.6-4.4-2.3l-36.5-62.7c-5.1-8.5-7.4-14.8-7.6-15.3v75.6
		c0,3.2-1.1,4.7-4.5,4.7h-15c-3.4,0-4.5-1.5-4.5-4.7V175.4c0-3.2,1.1-4.7,4.5-4.7h15c2.1,0,3.2,0.6,4,1.9l38,65.3
		c3.2,5.5,6.4,13.3,6.4,13.3v-75.7c0-3.2,1.1-4.7,4.5-4.7h15c3.4,0,4.5,1.5,4.5,4.7L1237.8,294.7L1237.8,294.7z"/>
	<path class="st1" d="M1346.3,231.8c3.2,0,4.7,1.1,4.7,4.5v33.7c0,15.9-10.2,30.9-44.5,30.9s-44.5-15-44.5-30.9V200
		c0-15.9,10.2-30.9,44.5-30.9s44.5,15,44.5,30.9v7.6c0,3.2-1.1,4.7-4.4,4.7H1331c-3.4,0-4.7-1.5-4.7-4.7v-3
		c0-9.5-6.7-14.2-19.3-14.2s-19.1,4.7-19.1,14.2v61c0,9.5,6.4,14.2,19.1,14.2s19.3-4.7,19.3-14V253h-18.6c-3.4,0-4.9-1.1-4.9-4.5
		v-12.1c0-3.4,1.5-4.5,4.9-4.5L1346.3,231.8L1346.3,231.8z"/>
	<path class="st1" d="M1378.8,299.5c-3.4,0-4.5-1.5-4.5-4.9V175.6c0-3.4,1.1-4.9,4.5-4.9h64.8c3.2,0,4.7,1.1,4.7,4.5v12
		c0,3.4-1.5,4.7-4.7,4.7h-43.8v30.7h40.5c3.4,0,4.9,1.1,4.9,4.5v11.4c0,3.2-1.5,4.5-4.9,4.5h-40.5v35.2h45.6c3.4,0,4.7,1.1,4.7,4.5
		v12c0,3.4-1.4,4.7-4.7,4.7L1378.8,299.5L1378.8,299.5z"/>
	<path class="st1" d="M1496.7,250.4v44.1c0,3.4-1.1,4.9-4.5,4.9h-16.5c-3.4,0-4.5-1.5-4.5-4.9V175.6c0-3.4,1.1-4.9,4.5-4.9h39.8
		c34.3,0,45.8,15,45.8,30.9v18c0,11.2-5.7,21.8-20.8,27.3l20.5,47.7c1.4,3-0.9,4.9-4.4,4.9h-16.7c-2.7,0-3.4-1.9-4.7-4.9l-18.6-44.1
		h-1.1H1496.7z M1496.7,191.9v37.3h18.8c12.7,0,20.5-4.7,20.5-14.2v-8.9c0-9.5-7.7-14.2-20.5-14.2L1496.7,191.9L1496.7,191.9z"/>
</g>
</svg>
